<mxfile host="app.diagrams.net" modified="2024-03-20T15:38:15.300Z" agent="Mozilla/5.0 (Windows NT 10.0; Win64; x64) AppleWebKit/537.36 (KHTML, like Gecko) Chrome/122.0.0.0 Safari/537.36" etag="LTlBZOYKvghHOEBdTAkU" version="24.0.7" type="github">
  <diagram name="Page-1" id="G8alsyCFFXMODm3ICyQG">
    <mxGraphModel dx="1909" dy="964" grid="1" gridSize="10" guides="1" tooltips="1" connect="1" arrows="1" fold="1" page="1" pageScale="1" pageWidth="850" pageHeight="1100" math="0" shadow="0">
      <root>
        <mxCell id="0" />
        <mxCell id="1" parent="0" />
        <mxCell id="tuEL0Vne4MHKqLynYqmd-2" value="" style="shape=image;verticalLabelPosition=bottom;labelBackgroundColor=default;verticalAlign=top;aspect=fixed;imageAspect=0;image=https://chisellabs.com/glossary/wp-content/uploads/2023/06/What-Is-a-Product-Support-Specialist-Role-and-Salary.png;" vertex="1" parent="1">
          <mxGeometry y="632" width="162" height="90" as="geometry" />
        </mxCell>
        <mxCell id="tuEL0Vne4MHKqLynYqmd-7" value="End Users" style="text;html=1;align=center;verticalAlign=middle;resizable=0;points=[];autosize=1;strokeColor=none;fillColor=none;fontStyle=1" vertex="1" parent="1">
          <mxGeometry x="35.160000000000025" y="703" width="80" height="30" as="geometry" />
        </mxCell>
        <mxCell id="tuEL0Vne4MHKqLynYqmd-11" value="" style="group" vertex="1" connectable="0" parent="1">
          <mxGeometry x="10" y="514" width="150.33" height="59" as="geometry" />
        </mxCell>
        <mxCell id="tuEL0Vne4MHKqLynYqmd-9" value="" style="html=1;verticalLabelPosition=bottom;align=center;labelBackgroundColor=#ffffff;verticalAlign=top;strokeWidth=2;strokeColor=#0080F0;shadow=0;dashed=0;shape=mxgraph.ios7.icons.cloud;" vertex="1" parent="tuEL0Vne4MHKqLynYqmd-11">
          <mxGeometry width="150.33" height="59" as="geometry" />
        </mxCell>
        <mxCell id="tuEL0Vne4MHKqLynYqmd-10" value="" style="shape=image;verticalLabelPosition=bottom;labelBackgroundColor=default;verticalAlign=top;aspect=fixed;imageAspect=0;image=data:image/png,iVBORw0KGgoAAAANSUhEUgAAAaMAAAB4CAMAAABoxW2eAAAAulBMVEX///8AAABzwFD6+vojIyPv7+/AwMAqKiqDg4PV1dXo6Ojr6+vf39+UlJT5+flqvUJvvkq4uLipqalzc3NUVFTMzMxCQkLz8/PDw8Pc3Nw3NzeKioqAgIBqamqampqioqJcXFwLCwsZGRmwsLAeHh5jY2M6OjowMDBVVVVISEi03KT4/Pas2JpnvD2b0YXO6MTq9eV5w1jC4rXX7M+GyGm53quf0omm1pKMynHm8+GJyW3e79aVznyAxmBgCU8yAAALp0lEQVR4nO2c6XbiuhJG7TAFGjCYmTAEQkIIGUlPp5O8/2sdZFs1SLJx39CXXuvU/hUs2Zb0SaVSSY7nCYIgCIIgCIIgCIIgCIIgCIIgCIIgCIIgCIIgCIIgCIIgCIIgCIIgCMKfpdarDk5dBiGLcsXfc107dTmEVC78hN6pSyKk0PaBL6cui+CmiBqdn7osgpMRSuSvTl0YwUmZaOSfujCCk55o9NdTIxJ1T10Ywc01atQ+dVkENyWQ6PbURRHSqI1jiTqnLoiQQXva35xXT10KQRAE4S+gVA4vJhdhu15wp4+uwslkFvaaB55TKIxGo/x7QSlvo6+NipW+b7EveEPlKGU/qNnbZzs/mM17ftrd3d/tXp9/q5j/B0qNG1ykXIdWPXodTL7ki5ihX4xY9fc/mu3pIspU9rzZIk4oOrYcmuMVuauf/FheGNnaU3ztsuPauaAFH89YuavJ+1dqYVzGRdh6li7T0/fWQxC0Wq0geHj58YoJc12ZJb8hecnqxig41P1Ql8jNuW8wZT5WdcNTi2WSCOG2ileAjSB/SJc9G+uFV5A290jge8IyNRZGqSpl4zHNiZHjgvT3qr7Y93pjnu3cOSy2d2dB6wxpBS87nYaV4T0U+i7vQNBgx1rx1SumRHs6aK4u7NQpWjzQ6KZH2nRIy++PzFfidoRqLXg/3Zoorxyl2jCTN1xYGVbYuVCjhpVt6RiTu7PgzCT40GMJxiELVxWwRehlDG8ND7Z+Lka+E9hu27hS15AMGrEGU2Wrwy9zcTqElIb66dLIGtoJpBvPnRlgrFWdyZoro0jbd1uhaCz9iNMx8ku7CdoDn87T0Ckqv6VEKiXfia5DwSnRvsPqcVZ2Jkf95xJ+Gla5yxMcGl36acx0FrdEKFK2RobNen5puSRSQ+nnNsqx1Dc2yG2kcajoFVfeT+BujdvsZF9Z+ZgMjbCV+P4qXp/wKp0ffKsfz2Ae22E3qJpvycwW8U8rTaL9UHqJRMIugbfVyeOIDcQxd5y9f/oagh7QYXodEycsQyOvD7+Zx47eWvwaS6M0QxcTjeAv6enF+CGHNCqi47A9S5doL9JXlQftDc5lbKJDPdxz1/8OcQjWnat24zb6M+mrbG9n0is1RyHxL0YHNcK0OXklNu+159Ro6GewjHVFc+l32/VmrUyG3nkujdBqel+zJNqL9KgyQc9C92BBHwd2bWC0wqfBuibNOAjRjpEe39UjC0WNXWpTo81Fo3FeSaz9Wl8tklfiExJzY2hUYB7dpF2r1dvgI47jqY1s3upuTQoSdWlDo+twVKuXO/SSHkj33F1oKfic9OTRnqOnYraDjP4BWMXicVa+TfCCie91rn1lHEbEtcQBXjWaZu9JhLxY6PfgFI3dTJsCQ6MZeSCsagfxUugy+Qlda4luFpY2muaYRh3ttQzIeEvK9A+TKGh9fX98/2ArpbOWmpLAawiTZ019hu4ssKo+kscwWFitQQA51vQqzDJRU1CN7LUhJMHQJFOcNgWGRuSB1Fiofqw7Es6idObHJ6tyVFOegyIlpvadyBF87GI37vkbVal1T1tjnLQdl0ivwHEtc6QYQwGske/YvoFEtuSDIb5QTUE0cux0ozcEj4ArYBy4RuSBfKVZxRkEhhpbOuLSeOgxjZh71YTLcVzn7YFI9I1k/BHwgYReQ2xnyOIoJu6hYE6PdjiDDP1J3UjDyZ1fZ2XFJg09G6xX0mlJfpCUa4RThjm0sXwQ2+Eqwq2qS6NGRlABvcbogY84Xh5eWcZvKFKgokLgr8XjHb3WhGhlVuA/jwFzrtdzFmuxOoqJUgXb3LkYQAcheTTUrAKGkWlUgMGwSA2x41BIQXVh1MjoezjVK9OxRYki14CCzkTkf4PXsFQlq/km0cCBdduRPAaPyh7Tn2cG6jiqTVEj5/YBjsXYXGPLoTvONCoZN7g46FYrs5OqEU5myiS+og6P1os+QMAHNU0t9I1qiNhRwKgFbvWPI3kMCnu93tFuXdZqPyKK+rMS2qDpKvFnYhamEfby9NUFd3pdNDM0wm6j4jf3KMOz9aKngI0xmAa7tNTFhf5rTjvAMb8vcMS9JvEwtQyuiXJwDmmEbo6a8bEKZLJhGrUPPE9x0AirJUxOjcCra/20X7R9YZ4d3lki/aQMC4E1GV3HPc7piHwVo2qt7QSOcskPaYSDX40c3PAhjinTKHTlMMiIUCXUc2mkzBGowHw6DSr4rn6C1zAjiyPSgCNvof88mscQM2Crb2zwgxqpSMNBjbDDXZHJhm5XpIyjdGNxWKN8tq5BXYbg1fGmb6DRL/UTvIYbnMc7ZE4/h8qujr67/qVh7qipIdL1D6BWJwc1QpM5JiEEmplphCGX9K/63DFCSn6NYMZxTEeet9PJrY/oN9yKBqFH5tw1TLeukMCn6RmDKSSGaeYVnPD2StMIc5QhnHJJMzCN0KWdO5+mgObfpBSMxxnyaRTk0ch25lRndvgwf+jb3iaNHat3g0nJOuR7WCP6oZ6GBTWYRrj26ac8juqYcQDpKLbuzvAo7EUR30nW/MEPQGpEpRrpHhm35NDInj54FXicAX0M0/kugbIwHjM+tMjpM8ASqHXneMhPSE0WT+QjD1Jra3gd2WPgoJ1tk7lwln5DDo3MdbLZ+lwjXAssjHm3C+EmnADSC5ZTI/TcPuxnbCEGoRU097Y2xiNjlodOIf4mIzY3o6m5outPo5rNazAyOTSyulmRJ3ONSH37rKpqgE1j2XCEm71nBiMrp0Z3uIZ9swq+w9lKW0KjKm0sG+HYHsOG1RO94yvaFAu2WCnd+GP7zEm6RmYU37BQxt4E2ZYpkqNY8bZMZcRvMZ7VcJ05ydToDWNBv8xyk1jewxbfQEmawVhjHtljUEG5ZQjDAu2tqiuJNBDzFM0vleSWPBoZBxTMaKOhEZuXb8ulplcYDHGiDKEIMeTcY3VMVMupkQcynAXmjASzUbKEtUoH3hSP8sJ0G05vLz6vlw7OXM571VE1JMtWNXKoU3lZjixPfZbkWcci5dKIV8y0T+Z5BiOWW7zhi+noACbxFYvzSIRBW6/n4pGUV6N7Mlh4qIEcuSMhcRbFhHmCrVySodwch4Nmdf3pUw3GKVskngyNw7p96mRWIvuXSyO+rWwmWueCUgsVUVQaGaHvNbvFODmWrdEz2coL3nGR9PZBNmJf8HbqNeDpb1oe7THc9pqNxsBbf/K/VTkC7Anlw80VLWDyaUSrYE2olkYZB7PgPbOsLHUvv0bed7op3nqMvph4fnqne+XBjtxP3kP2H0jvTaox2Hj1zlXfK2d4xTlID/LrbdOB6zB4zCJqrHwa0biSFYezz0DaS0Xe/oqMQ3hRhCK3Rlt+vCR4UPDT+V/p/aRfk6qQPpM0RK/h1fudjlf73He+qZtlFfB6B2kjaRUXJadG2BvsEjvOEteXvpslNnjqFmRo1O2ARt7ugWkUQzUKmFeO+yvdzKujzn4cdYZe9bP/Bcld0S71vNwdVjd1To3QRbSzOb+bMA5GJUxpwcoLV5ZxskWZXyO0dq3g5cfT2/Pz89vuET+jMHctwGtgfn/XujoefAmbE2/66Y+xa+Y3PL4Vzazam319eG9ejfQK4tJOcmpkfTTkGx8+eY7vj2jZf0MjfVA1+CAnGra75ISx/nQCgCo7K7iEbtTrK2/hIn3PPz+DkG1CjBt2IIMHxRcd0jPyaqSnWseOAzzBMIM9Hhy7dATBSg3ml9+SrxdQI+PzJ9QIvJftL/XxXmvHM3r3D/uLD6ZEUGBeXB3xIh1ttLnu9NPD97/HYDif9lfF1WYSWt9zxTR7s476JrLfmVeZhoWS5tA7UnPBEywntdmbX/eL+7dOZ8M0D7Z2ddGtFIvj61mZPRwLZm63QQKpyLevH9/tzYnX94+f5mEhrErTebXAr/0FX9IKgiAIgiAIgiAIgiAIgiAIgiAIgiAIgiAIgiAIgiAIgiAIgiAIgiAIwn+YfwGfjqhY5TfNVAAAAABJRU5ErkJggg==;" vertex="1" parent="tuEL0Vne4MHKqLynYqmd-11">
          <mxGeometry x="22.789999999999992" y="28" width="104.75" height="30" as="geometry" />
        </mxCell>
        <mxCell id="tuEL0Vne4MHKqLynYqmd-26" value="AWS Cloud" style="points=[[0,0],[0.25,0],[0.5,0],[0.75,0],[1,0],[1,0.25],[1,0.5],[1,0.75],[1,1],[0.75,1],[0.5,1],[0.25,1],[0,1],[0,0.75],[0,0.5],[0,0.25]];outlineConnect=0;gradientColor=none;html=1;whiteSpace=wrap;fontSize=12;fontStyle=0;container=1;pointerEvents=0;collapsible=0;recursiveResize=0;shape=mxgraph.aws4.group;grIcon=mxgraph.aws4.group_aws_cloud_alt;strokeColor=#232F3E;fillColor=none;verticalAlign=top;align=left;spacingLeft=30;fontColor=#232F3E;dashed=0;" vertex="1" parent="1">
          <mxGeometry x="211" y="400" width="629" height="470" as="geometry" />
        </mxCell>
        <mxCell id="tuEL0Vne4MHKqLynYqmd-27" value="VPC" style="sketch=0;outlineConnect=0;gradientColor=none;html=1;whiteSpace=wrap;fontSize=12;fontStyle=0;shape=mxgraph.aws4.group;grIcon=mxgraph.aws4.group_vpc;strokeColor=#27405d;fillColor=none;verticalAlign=top;align=left;spacingLeft=30;fontColor=#3333FF;dashed=0;" vertex="1" parent="tuEL0Vne4MHKqLynYqmd-26">
          <mxGeometry x="10" y="28" width="600" height="420" as="geometry" />
        </mxCell>
        <mxCell id="tuEL0Vne4MHKqLynYqmd-75" style="edgeStyle=orthogonalEdgeStyle;rounded=0;orthogonalLoop=1;jettySize=auto;html=1;" edge="1" parent="tuEL0Vne4MHKqLynYqmd-26" source="tuEL0Vne4MHKqLynYqmd-34" target="tuEL0Vne4MHKqLynYqmd-17">
          <mxGeometry relative="1" as="geometry" />
        </mxCell>
        <mxCell id="tuEL0Vne4MHKqLynYqmd-34" value="" style="outlineConnect=0;dashed=0;verticalLabelPosition=bottom;verticalAlign=top;align=center;html=1;shape=mxgraph.aws3.classic_load_balancer;fillColor=#F58536;gradientColor=none;" vertex="1" parent="tuEL0Vne4MHKqLynYqmd-26">
          <mxGeometry x="127" y="202" width="69" height="72" as="geometry" />
        </mxCell>
        <mxCell id="tuEL0Vne4MHKqLynYqmd-30" value="&lt;span style=&quot;color: rgb(36, 136, 20);&quot;&gt;Private Subnet&lt;/span&gt;" style="sketch=0;outlineConnect=0;html=1;whiteSpace=wrap;fontSize=12;fontStyle=0;shape=mxgraph.aws4.group;grIcon=mxgraph.aws4.group_subnet;strokeColor=#6c8ebf;fillColor=#dae8fc;verticalAlign=top;align=left;spacingLeft=30;dashed=0;" vertex="1" parent="tuEL0Vne4MHKqLynYqmd-26">
          <mxGeometry x="270" y="73" width="130" height="130" as="geometry" />
        </mxCell>
        <mxCell id="tuEL0Vne4MHKqLynYqmd-35" value="MID Server" style="outlineConnect=0;dashed=0;verticalLabelPosition=bottom;verticalAlign=top;align=center;html=1;shape=mxgraph.aws3.ec2;fillColor=#F58534;gradientColor=none;" vertex="1" parent="tuEL0Vne4MHKqLynYqmd-26">
          <mxGeometry x="320" y="118" width="30" height="40" as="geometry" />
        </mxCell>
        <mxCell id="tuEL0Vne4MHKqLynYqmd-42" value="&lt;span style=&quot;color: rgb(36, 136, 20);&quot;&gt;Data Subnet&lt;/span&gt;" style="sketch=0;outlineConnect=0;html=1;whiteSpace=wrap;fontSize=12;fontStyle=0;shape=mxgraph.aws4.group;grIcon=mxgraph.aws4.group_subnet;strokeColor=#6c8ebf;fillColor=#dae8fc;verticalAlign=top;align=left;spacingLeft=30;dashed=0;" vertex="1" parent="tuEL0Vne4MHKqLynYqmd-26">
          <mxGeometry x="440" y="73" width="130" height="130" as="geometry" />
        </mxCell>
        <mxCell id="tuEL0Vne4MHKqLynYqmd-31" value="&lt;span style=&quot;color: rgb(36, 136, 20);&quot;&gt;Private Subnet&lt;/span&gt;" style="sketch=0;outlineConnect=0;html=1;whiteSpace=wrap;fontSize=12;fontStyle=0;shape=mxgraph.aws4.group;grIcon=mxgraph.aws4.group_subnet;strokeColor=#d6b656;fillColor=#fff2cc;verticalAlign=top;align=left;spacingLeft=30;dashed=0;" vertex="1" parent="tuEL0Vne4MHKqLynYqmd-26">
          <mxGeometry x="270" y="274" width="130" height="127" as="geometry" />
        </mxCell>
        <mxCell id="tuEL0Vne4MHKqLynYqmd-36" value="MID Server" style="outlineConnect=0;dashed=0;verticalLabelPosition=bottom;verticalAlign=top;align=center;html=1;shape=mxgraph.aws3.ec2;fillColor=#F58534;gradientColor=none;" vertex="1" parent="tuEL0Vne4MHKqLynYqmd-26">
          <mxGeometry x="320" y="316" width="30" height="40" as="geometry" />
        </mxCell>
        <mxCell id="tuEL0Vne4MHKqLynYqmd-43" value="&lt;span style=&quot;color: rgb(36, 136, 20);&quot;&gt;Data Subnet&lt;/span&gt;" style="sketch=0;outlineConnect=0;html=1;whiteSpace=wrap;fontSize=12;fontStyle=0;shape=mxgraph.aws4.group;grIcon=mxgraph.aws4.group_subnet;strokeColor=#d6b656;fillColor=#fff2cc;verticalAlign=top;align=left;spacingLeft=30;dashed=0;" vertex="1" parent="tuEL0Vne4MHKqLynYqmd-26">
          <mxGeometry x="440" y="274" width="130" height="127" as="geometry" />
        </mxCell>
        <mxCell id="tuEL0Vne4MHKqLynYqmd-48" value="" style="group" vertex="1" connectable="0" parent="tuEL0Vne4MHKqLynYqmd-26">
          <mxGeometry x="458.11" y="316" width="80" height="65" as="geometry" />
        </mxCell>
        <mxCell id="tuEL0Vne4MHKqLynYqmd-49" value="" style="shape=image;verticalLabelPosition=bottom;labelBackgroundColor=default;verticalAlign=top;aspect=fixed;imageAspect=0;image=https://static-00.iconduck.com/assets.00/database-amazonrds-oracledbinstance-icon-1924x2048-wa4217he.png;" vertex="1" parent="tuEL0Vne4MHKqLynYqmd-48">
          <mxGeometry x="13.129999999999995" width="53.74" height="39" as="geometry" />
        </mxCell>
        <mxCell id="tuEL0Vne4MHKqLynYqmd-50" value="Oracle DB" style="text;html=1;align=center;verticalAlign=middle;resizable=0;points=[];autosize=1;strokeColor=none;fillColor=none;" vertex="1" parent="tuEL0Vne4MHKqLynYqmd-48">
          <mxGeometry y="35" width="80" height="30" as="geometry" />
        </mxCell>
        <mxCell id="tuEL0Vne4MHKqLynYqmd-54" style="edgeStyle=orthogonalEdgeStyle;rounded=0;orthogonalLoop=1;jettySize=auto;html=1;entryX=0;entryY=0.5;entryDx=0;entryDy=0;" edge="1" parent="tuEL0Vne4MHKqLynYqmd-26">
          <mxGeometry relative="1" as="geometry">
            <mxPoint x="350" y="336" as="sourcePoint" />
            <mxPoint x="471" y="336" as="targetPoint" />
          </mxGeometry>
        </mxCell>
        <mxCell id="tuEL0Vne4MHKqLynYqmd-57" style="edgeStyle=orthogonalEdgeStyle;rounded=0;orthogonalLoop=1;jettySize=auto;html=1;entryX=0;entryY=0.5;entryDx=0;entryDy=0;entryPerimeter=0;" edge="1" parent="tuEL0Vne4MHKqLynYqmd-26" target="tuEL0Vne4MHKqLynYqmd-36">
          <mxGeometry relative="1" as="geometry">
            <mxPoint x="216" y="238.0666666666666" as="sourcePoint" />
            <Array as="points">
              <mxPoint x="229" y="238" />
              <mxPoint x="229" y="336" />
            </Array>
          </mxGeometry>
        </mxCell>
        <mxCell id="tuEL0Vne4MHKqLynYqmd-58" style="edgeStyle=orthogonalEdgeStyle;rounded=0;orthogonalLoop=1;jettySize=auto;html=1;entryX=0;entryY=0.5;entryDx=0;entryDy=0;entryPerimeter=0;exitX=1;exitY=0.5;exitDx=0;exitDy=0;exitPerimeter=0;" edge="1" parent="tuEL0Vne4MHKqLynYqmd-26" source="tuEL0Vne4MHKqLynYqmd-34" target="tuEL0Vne4MHKqLynYqmd-35">
          <mxGeometry relative="1" as="geometry">
            <mxPoint x="216" y="238.0666666666666" as="sourcePoint" />
            <Array as="points">
              <mxPoint x="229" y="238" />
              <mxPoint x="229" y="138" />
            </Array>
          </mxGeometry>
        </mxCell>
        <mxCell id="tuEL0Vne4MHKqLynYqmd-61" value="" style="group" vertex="1" connectable="0" parent="tuEL0Vne4MHKqLynYqmd-26">
          <mxGeometry x="459" y="118" width="141" height="102" as="geometry" />
        </mxCell>
        <mxCell id="tuEL0Vne4MHKqLynYqmd-62" value="" style="shape=image;verticalLabelPosition=bottom;labelBackgroundColor=default;verticalAlign=top;aspect=fixed;imageAspect=0;image=https://static-00.iconduck.com/assets.00/database-amazonrds-oracledbinstance-icon-1924x2048-wa4217he.png;" vertex="1" parent="tuEL0Vne4MHKqLynYqmd-61">
          <mxGeometry x="13.129999999999995" width="53.74" height="39" as="geometry" />
        </mxCell>
        <mxCell id="tuEL0Vne4MHKqLynYqmd-63" value="Oracle DB" style="text;html=1;align=center;verticalAlign=middle;resizable=0;points=[];autosize=1;strokeColor=none;fillColor=none;" vertex="1" parent="tuEL0Vne4MHKqLynYqmd-61">
          <mxGeometry y="35" width="80" height="30" as="geometry" />
        </mxCell>
        <mxCell id="tuEL0Vne4MHKqLynYqmd-69" value="" style="group" vertex="1" connectable="0" parent="tuEL0Vne4MHKqLynYqmd-61">
          <mxGeometry x="-206" y="-78" width="340" height="180" as="geometry" />
        </mxCell>
        <mxCell id="tuEL0Vne4MHKqLynYqmd-67" value="Availability Zone 1" style="text;html=1;align=center;verticalAlign=middle;resizable=0;points=[];autosize=1;strokeColor=none;fillColor=none;" vertex="1" parent="tuEL0Vne4MHKqLynYqmd-69">
          <mxGeometry x="100" width="120" height="30" as="geometry" />
        </mxCell>
        <mxCell id="tuEL0Vne4MHKqLynYqmd-68" value="" style="rounded=1;arcSize=10;dashed=1;strokeColor=#35346f;fillColor=none;gradientColor=none;dashPattern=8 4;strokeWidth=2;" vertex="1" parent="tuEL0Vne4MHKqLynYqmd-69">
          <mxGeometry width="340" height="180" as="geometry" />
        </mxCell>
        <mxCell id="tuEL0Vne4MHKqLynYqmd-74" style="edgeStyle=orthogonalEdgeStyle;rounded=0;orthogonalLoop=1;jettySize=auto;html=1;" edge="1" parent="tuEL0Vne4MHKqLynYqmd-69">
          <mxGeometry relative="1" as="geometry">
            <mxPoint x="98" y="98" as="sourcePoint" />
            <mxPoint x="225" y="98" as="targetPoint" />
          </mxGeometry>
        </mxCell>
        <mxCell id="tuEL0Vne4MHKqLynYqmd-70" value="" style="group" vertex="1" connectable="0" parent="tuEL0Vne4MHKqLynYqmd-26">
          <mxGeometry x="250" y="246" width="340" height="180" as="geometry" />
        </mxCell>
        <mxCell id="tuEL0Vne4MHKqLynYqmd-66" value="Availability Zone 2" style="text;html=1;align=center;verticalAlign=middle;resizable=0;points=[];autosize=1;strokeColor=none;fillColor=none;" vertex="1" parent="tuEL0Vne4MHKqLynYqmd-70">
          <mxGeometry x="100" width="120" height="30" as="geometry" />
        </mxCell>
        <mxCell id="tuEL0Vne4MHKqLynYqmd-64" value="" style="rounded=1;arcSize=10;dashed=1;strokeColor=#F59D56;fillColor=none;gradientColor=none;dashPattern=8 4;strokeWidth=2;" vertex="1" parent="tuEL0Vne4MHKqLynYqmd-70">
          <mxGeometry width="340" height="180" as="geometry" />
        </mxCell>
        <mxCell id="tuEL0Vne4MHKqLynYqmd-78" style="edgeStyle=orthogonalEdgeStyle;rounded=0;orthogonalLoop=1;jettySize=auto;html=1;" edge="1" parent="tuEL0Vne4MHKqLynYqmd-26" source="tuEL0Vne4MHKqLynYqmd-17" target="tuEL0Vne4MHKqLynYqmd-34">
          <mxGeometry relative="1" as="geometry" />
        </mxCell>
        <mxCell id="tuEL0Vne4MHKqLynYqmd-17" value="Firewall" style="sketch=0;points=[[0,0,0],[0.25,0,0],[0.5,0,0],[0.75,0,0],[1,0,0],[0,1,0],[0.25,1,0],[0.5,1,0],[0.75,1,0],[1,1,0],[0,0.25,0],[0,0.5,0],[0,0.75,0],[1,0.25,0],[1,0.5,0],[1,0.75,0]];outlineConnect=0;fontColor=#232F3E;fillColor=#DD344C;strokeColor=#ffffff;dashed=0;verticalLabelPosition=bottom;verticalAlign=top;align=center;html=1;fontSize=12;fontStyle=0;aspect=fixed;shape=mxgraph.aws4.resourceIcon;resIcon=mxgraph.aws4.firewall_manager;" vertex="1" parent="tuEL0Vne4MHKqLynYqmd-26">
          <mxGeometry x="30" y="208" width="60" height="60" as="geometry" />
        </mxCell>
        <mxCell id="tuEL0Vne4MHKqLynYqmd-80" value="Load Balancer" style="text;html=1;align=center;verticalAlign=middle;resizable=0;points=[];autosize=1;strokeColor=none;fillColor=none;" vertex="1" parent="tuEL0Vne4MHKqLynYqmd-26">
          <mxGeometry x="113.5" y="268" width="100" height="30" as="geometry" />
        </mxCell>
        <mxCell id="tuEL0Vne4MHKqLynYqmd-79" style="edgeStyle=orthogonalEdgeStyle;rounded=0;orthogonalLoop=1;jettySize=auto;html=1;startArrow=classic;startFill=1;entryX=0.685;entryY=0.556;entryDx=0;entryDy=0;entryPerimeter=0;exitX=0;exitY=0.75;exitDx=0;exitDy=0;exitPerimeter=0;" edge="1" parent="1" source="tuEL0Vne4MHKqLynYqmd-17" target="tuEL0Vne4MHKqLynYqmd-2">
          <mxGeometry relative="1" as="geometry">
            <mxPoint x="130.17000000000002" y="660" as="targetPoint" />
            <mxPoint x="204.16999999999996" y="660" as="sourcePoint" />
            <Array as="points">
              <mxPoint x="171" y="653" />
              <mxPoint x="171" y="682" />
            </Array>
          </mxGeometry>
        </mxCell>
        <mxCell id="tuEL0Vne4MHKqLynYqmd-76" style="edgeStyle=orthogonalEdgeStyle;rounded=0;orthogonalLoop=1;jettySize=auto;html=1;startArrow=classic;startFill=1;" edge="1" parent="1" source="tuEL0Vne4MHKqLynYqmd-17" target="tuEL0Vne4MHKqLynYqmd-9">
          <mxGeometry relative="1" as="geometry">
            <mxPoint x="161" y="538" as="targetPoint" />
            <Array as="points">
              <mxPoint x="171" y="638" />
              <mxPoint x="171" y="600" />
              <mxPoint x="85" y="600" />
            </Array>
          </mxGeometry>
        </mxCell>
        <mxCell id="tuEL0Vne4MHKqLynYqmd-81" value="&lt;span style=&quot;color: rgb(0, 0, 0); font-family: Lato; font-size: 16px; font-style: normal; font-variant-ligatures: normal; font-variant-caps: normal; font-weight: 400; letter-spacing: normal; orphans: 2; text-align: left; text-indent: 0px; text-transform: none; widows: 2; word-spacing: 0px; -webkit-text-stroke-width: 0px; white-space: normal; background-color: rgb(248, 250, 252); text-decoration-thickness: initial; text-decoration-style: initial; text-decoration-color: initial; display: inline !important; float: none;&quot;&gt;The Management, Instrumentation, and Discovery (MID) Server is a Java application that runs as a&lt;span&gt;&amp;nbsp;&lt;/span&gt;&lt;/span&gt;&lt;span class=&quot;ph&quot; style=&quot;box-sizing: inherit; color: rgb(0, 0, 0); font-family: Lato; font-size: 16px; font-style: normal; font-variant-ligatures: normal; font-variant-caps: normal; font-weight: 400; letter-spacing: normal; orphans: 2; text-align: left; text-indent: 0px; text-transform: none; widows: 2; word-spacing: 0px; -webkit-text-stroke-width: 0px; white-space: normal; background-color: rgb(248, 250, 252); text-decoration-thickness: initial; text-decoration-style: initial; text-decoration-color: initial;&quot;&gt;Windows&lt;/span&gt;&lt;span style=&quot;color: rgb(0, 0, 0); font-family: Lato; font-size: 16px; font-style: normal; font-variant-ligatures: normal; font-variant-caps: normal; font-weight: 400; letter-spacing: normal; orphans: 2; text-align: left; text-indent: 0px; text-transform: none; widows: 2; word-spacing: 0px; -webkit-text-stroke-width: 0px; white-space: normal; background-color: rgb(248, 250, 252); text-decoration-thickness: initial; text-decoration-style: initial; text-decoration-color: initial; display: inline !important; float: none;&quot;&gt;&lt;span&gt;&amp;nbsp;&lt;/span&gt;service or&lt;span&gt;&amp;nbsp;&lt;/span&gt;&lt;/span&gt;&lt;span class=&quot;ph&quot; style=&quot;box-sizing: inherit; color: rgb(0, 0, 0); font-family: Lato; font-size: 16px; font-style: normal; font-variant-ligatures: normal; font-variant-caps: normal; font-weight: 400; letter-spacing: normal; orphans: 2; text-align: left; text-indent: 0px; text-transform: none; widows: 2; word-spacing: 0px; -webkit-text-stroke-width: 0px; white-space: normal; background-color: rgb(248, 250, 252); text-decoration-thickness: initial; text-decoration-style: initial; text-decoration-color: initial;&quot;&gt;UNIX&lt;/span&gt;&lt;span style=&quot;color: rgb(0, 0, 0); font-family: Lato; font-size: 16px; font-style: normal; font-variant-ligatures: normal; font-variant-caps: normal; font-weight: 400; letter-spacing: normal; orphans: 2; text-align: left; text-indent: 0px; text-transform: none; widows: 2; word-spacing: 0px; -webkit-text-stroke-width: 0px; white-space: normal; background-color: rgb(248, 250, 252); text-decoration-thickness: initial; text-decoration-style: initial; text-decoration-color: initial; display: inline !important; float: none;&quot;&gt;&lt;span&gt;&amp;nbsp;&lt;/span&gt;daemon on a server in your local network. The&lt;span&gt;&amp;nbsp;&lt;/span&gt;&lt;/span&gt;&lt;span class=&quot;ph&quot; style=&quot;box-sizing: inherit; color: rgb(0, 0, 0); font-family: Lato; font-size: 16px; font-style: normal; font-variant-ligatures: normal; font-variant-caps: normal; font-weight: 400; letter-spacing: normal; orphans: 2; text-align: left; text-indent: 0px; text-transform: none; widows: 2; word-spacing: 0px; -webkit-text-stroke-width: 0px; white-space: normal; background-color: rgb(248, 250, 252); text-decoration-thickness: initial; text-decoration-style: initial; text-decoration-color: initial;&quot;&gt;ServiceNow®&lt;/span&gt;&lt;span style=&quot;color: rgb(0, 0, 0); font-family: Lato; font-size: 16px; font-style: normal; font-variant-ligatures: normal; font-variant-caps: normal; font-weight: 400; letter-spacing: normal; orphans: 2; text-align: left; text-indent: 0px; text-transform: none; widows: 2; word-spacing: 0px; -webkit-text-stroke-width: 0px; white-space: normal; background-color: rgb(248, 250, 252); text-decoration-thickness: initial; text-decoration-style: initial; text-decoration-color: initial; display: inline !important; float: none;&quot;&gt;&lt;span&gt;&amp;nbsp;&lt;/span&gt;&lt;/span&gt;&lt;span class=&quot;ph&quot; style=&quot;box-sizing: inherit; color: rgb(0, 0, 0); font-family: Lato; font-size: 16px; font-style: normal; font-variant-ligatures: normal; font-variant-caps: normal; font-weight: 400; letter-spacing: normal; orphans: 2; text-align: left; text-indent: 0px; text-transform: none; widows: 2; word-spacing: 0px; -webkit-text-stroke-width: 0px; white-space: normal; background-color: rgb(248, 250, 252); text-decoration-thickness: initial; text-decoration-style: initial; text-decoration-color: initial;&quot;&gt;MID Server&lt;/span&gt;&lt;span style=&quot;color: rgb(0, 0, 0); font-family: Lato; font-size: 16px; font-style: normal; font-variant-ligatures: normal; font-variant-caps: normal; font-weight: 400; letter-spacing: normal; orphans: 2; text-align: left; text-indent: 0px; text-transform: none; widows: 2; word-spacing: 0px; -webkit-text-stroke-width: 0px; white-space: normal; background-color: rgb(248, 250, 252); text-decoration-thickness: initial; text-decoration-style: initial; text-decoration-color: initial; display: inline !important; float: none;&quot;&gt;&lt;span&gt;&amp;nbsp;&lt;/span&gt;enables communication and the movement of data between a&lt;span&gt;&amp;nbsp;&lt;/span&gt;&lt;/span&gt;&lt;span class=&quot;ph&quot; style=&quot;box-sizing: inherit; color: rgb(0, 0, 0); font-family: Lato; font-size: 16px; font-style: normal; font-variant-ligatures: normal; font-variant-caps: normal; font-weight: 400; letter-spacing: normal; orphans: 2; text-align: left; text-indent: 0px; text-transform: none; widows: 2; word-spacing: 0px; -webkit-text-stroke-width: 0px; white-space: normal; background-color: rgb(248, 250, 252); text-decoration-thickness: initial; text-decoration-style: initial; text-decoration-color: initial;&quot;&gt;ServiceNow&lt;/span&gt;&lt;span style=&quot;color: rgb(0, 0, 0); font-family: Lato; font-size: 16px; font-style: normal; font-variant-ligatures: normal; font-variant-caps: normal; font-weight: 400; letter-spacing: normal; orphans: 2; text-align: left; text-indent: 0px; text-transform: none; widows: 2; word-spacing: 0px; -webkit-text-stroke-width: 0px; white-space: normal; background-color: rgb(248, 250, 252); text-decoration-thickness: initial; text-decoration-style: initial; text-decoration-color: initial; display: inline !important; float: none;&quot;&gt;&lt;span&gt;&amp;nbsp;&lt;/span&gt;instance and external applications, data sources, and services.&lt;/span&gt;" style="text;whiteSpace=wrap;html=1;" vertex="1" parent="1">
          <mxGeometry x="239" y="890" width="560" height="120" as="geometry" />
        </mxCell>
      </root>
    </mxGraphModel>
  </diagram>
</mxfile>
